<svg data-v-29081953="" xmlns="http://www.w3.org/2000/svg" viewBox="0 0 300 300"><!----><defs data-v-29081953=""><!----></defs><rect data-v-29081953="" fill="#00242C" x="0" y="0" width="300px" height="300px" class="logo-background-square"></rect><!----><defs data-v-29081953=""><!----></defs><g data-v-29081953="" id="4a500e31-59dd-4405-9956-df2bd3e10572" fill="#81E291" stroke="none" transform="matrix(2.4444444444444446,0,0,2.4444444444444446,27.777777777777764,27.777777777777764)"><ellipse transform="rotate(-19.986 41.6 34.355)" cx="41.597" cy="34.354" rx="2.638" ry=".975"></ellipse><ellipse transform="rotate(-19.975 52.946 31.457)" cx="52.942" cy="31.455" rx="2.638" ry=".975"></ellipse><ellipse transform="rotate(-19.982 63.487 26.391)" cx="63.497" cy="26.392" rx="2.638" ry=".976"></ellipse><ellipse transform="rotate(-19.986 70.425 20.517)" cx="70.434" cy="20.518" rx="2.639" ry=".975"></ellipse><ellipse transform="rotate(-19.982 71.88 15.41)" cx="71.892" cy="15.408" rx="2.638" ry=".975"></ellipse><ellipse transform="rotate(-19.986 32.506 34.31)" cx="32.503" cy="34.308" rx="2.638" ry=".976"></ellipse><ellipse transform="rotate(-19.982 28.094 31.326)" cx="28.099" cy="31.329" rx="2.638" ry=".975"></ellipse><ellipse transform="rotate(-19.975 29.559 26.221)" cx="29.556" cy="26.22" rx="2.638" ry=".975"></ellipse><ellipse transform="rotate(-19.986 67.492 12.43)" cx="67.488" cy="12.43" rx="2.638" ry=".975"></ellipse><path d="M68.228 59.991l-7.689-25.718c6.313-2.784 11.866-6.104 15.995-9.602 5.732-4.857 8.129-9.62 6.746-13.412-1.396-3.83-6.375-5.94-14.019-5.94-3.833 0-8.147.522-12.682 1.509A16.06 16.06 0 0 0 49.148 5c-1.877 0-3.731.328-5.51.975a15.994 15.994 0 0 0-9.375 8.971c-4.182 2.194-7.879 4.609-10.84 7.118-5.732 4.857-8.128 9.62-6.747 13.412 1.396 3.832 6.375 5.942 14.018 5.942 2.629 0 5.486-.246 8.485-.718l-5.301 18.524L5 69.728v8.911L49.999 95 95 78.639v-8.911l-26.772-9.737zm-30.9-44.402a12.937 12.937 0 0 1 6.93-6.567c7.062 1.879 11.227 6.656 11.559 13.236a35.123 35.123 0 0 1-5.366 2.462c-3.447 1.253-6.854 1.943-9.596 1.943-2.444 0-3.767-.576-3.962-1.112a12.925 12.925 0 0 1 .435-9.962zm-6.634 22.766c-6.077 0-10.24-1.468-11.136-3.927-.884-2.427 1.302-6.176 5.849-10.028 2.189-1.854 4.816-3.658 7.76-5.355a15.988 15.988 0 0 0 .844 7.553c.52 1.428 2.128 3.129 6.844 3.129 3.09 0 6.87-.756 10.646-2.129 2.424-.881 4.732-1.98 6.677-3.177 4.564-2.804 6.793-5.832 6.203-8.386a1.547 1.547 0 0 0-.091-.444 16.049 16.049 0 0 0-4.237-6.327c3.276-.578 6.386-.881 9.209-.881 6.077 0 10.241 1.467 11.138 3.926.885 2.426-1.303 6.175-5.85 10.027-5.071 4.297-12.46 8.335-20.804 11.369-8.25 2.999-16.436 4.65-23.052 4.65zm11.851 1.73c3.96-.817 8.102-1.994 12.249-3.502a95.8 95.8 0 0 0 2.901-1.111l6.941 23.214-14.638-5.322-12.561 4.567 5.108-17.846zm-6.148 21.484l13.602-4.946 15.732 5.721.833 2.786c-3.735-1.845-9.308-2.954-15.563-2.954-6.294 0-11.897 1.124-15.632 2.99l1.028-3.597zm-2.505 8.561c1.429-2.37 7.911-4.891 17.108-4.891s15.68 2.52 17.107 4.89c.183.303.271.586.271.866 0 2.403-6.611 5.756-17.379 5.756-10.767 0-17.378-3.353-17.378-5.756.001-.28.089-.563.271-.865zM51 79.814c9.912 0 20.445-3.091 20.445-8.819 0-.772-.203-1.528-.602-2.253l-1.523-5.093 19.664 7.15-38.985 14.174L11.016 70.8l21.821-7.936-1.685 5.886c-.395.722-.597 1.476-.597 2.245 0 5.729 10.534 8.819 20.445 8.819zM8.067 72.987l40.398 14.688v3.506L8.067 76.494v-3.507z"></path></g><!----></svg>